<svg xmlns="http://www.w3.org/2000/svg" xmlns:xlink="http://www.w3.org/1999/xlink" width="1030.924" height="828.735" viewBox="0 0 1030.924 828.735">
  <defs>
    <clipPath id="clip-path">
      <rect id="Rectangle_1" data-name="Rectangle 1" width="1030.924" height="828.735" fill="none" stroke="#fff" stroke-width="2"/>
    </clipPath>
  </defs>
  <g id="Group_36" data-name="Group 36" transform="translate(8 10)">
    <g id="Group_1" data-name="Group 1" transform="translate(-8 -10)" clip-path="url(#clip-path)">
      <path id="Path_1" data-name="Path 1" d="M436.036,5.293s215.586-16.209,367.956,8.1l59.975,61.6V167.9L948.256,253.3v82.615h61.774l20.894,21.126S721.323,485.094,479.8,796.316c0,0,113.466-241.522,437.656-466.834,0,0-380.923,30.8-761.846,499.253,0,0,243.142-445.761,705.113-599.752,0,0-442.519-1.621-860.724,510.6,0,0,248.005-457.108,739.153-607.856,0,0-239.9-30.8-583.542,79.427,0,0,298.255-155.611,646.759-152.369,0,0-129.676-43.766-366.335-53.491" transform="translate(0 0)" fill="none" stroke="#fff" stroke-width="2"/>
    </g>
  </g>
</svg>
