<svg id="download-cloud-line" xmlns="http://www.w3.org/2000/svg" width="23.381" height="24" viewBox="0 0 23.381 24">
  <path id="Path_105" data-name="Path 105" d="M0,0H23.381V24H0Z" fill="none"/>
  <path id="Path_106" data-name="Path 106" d="M1,14.5A6.537,6.537,0,0,1,3.985,8.981,7.867,7.867,0,0,1,11.716,2a7.867,7.867,0,0,1,7.731,6.983,6.576,6.576,0,0,1,2.806,7.064,6.383,6.383,0,0,1-5.666,4.936L6.845,21A6.465,6.465,0,0,1,1,14.5Zm15.439,4.487a4.419,4.419,0,0,0,3.923-3.419,4.553,4.553,0,0,0-1.945-4.89l-.786-.5-.117-.942A5.9,5.9,0,0,0,11.716,4a5.9,5.9,0,0,0-5.8,5.232l-.117.942-.784.5a4.553,4.553,0,0,0-1.945,4.89,4.419,4.419,0,0,0,3.922,3.419L7.162,19h9.109l.169-.013ZM12.691,12h2.923l-3.9,5-3.9-5h2.923V8h1.948Z" transform="translate(-0.026)" fill="#fff"/>
</svg>
