<svg id="instagram-line" xmlns="http://www.w3.org/2000/svg" width="20.639" height="20.639" viewBox="0 0 20.639 20.639">
  <path id="Path_82" data-name="Path 82" d="M0,0H20.639V20.639H0Z" fill="none"/>
  <path id="Path_83" data-name="Path 83" d="M10.6,8.02a2.58,2.58,0,1,0,2.58,2.58A2.58,2.58,0,0,0,10.6,8.02Zm0-1.72a4.3,4.3,0,1,1-4.3,4.3A4.3,4.3,0,0,1,10.6,6.3Zm5.59-.215A1.075,1.075,0,1,1,15.114,5.01,1.075,1.075,0,0,1,16.189,6.085ZM10.6,3.72c-2.128,0-2.475.006-3.465.05a4.672,4.672,0,0,0-1.546.286A2.683,2.683,0,0,0,4.054,5.589,4.665,4.665,0,0,0,3.77,7.135c-.045.949-.05,1.281-.05,3.465,0,2.128.006,2.475.05,3.465a4.691,4.691,0,0,0,.285,1.545,2.674,2.674,0,0,0,1.532,1.533,4.682,4.682,0,0,0,1.548.286c.949.045,1.281.05,3.465.05,2.128,0,2.475-.006,3.465-.05a4.7,4.7,0,0,0,1.545-.285,2.512,2.512,0,0,0,.929-.6,2.486,2.486,0,0,0,.605-.929,4.7,4.7,0,0,0,.286-1.548c.045-.949.05-1.281.05-3.465,0-2.128-.006-2.475-.05-3.465a4.681,4.681,0,0,0-.286-1.546,2.5,2.5,0,0,0-.6-.929,2.48,2.48,0,0,0-.929-.605,4.67,4.67,0,0,0-1.546-.285C13.115,3.725,12.783,3.72,10.6,3.72ZM10.6,2c2.337,0,2.628.009,3.545.052a6.335,6.335,0,0,1,2.088.4,4.193,4.193,0,0,1,1.524.992,4.221,4.221,0,0,1,.992,1.524,6.353,6.353,0,0,1,.4,2.088c.04.917.052,1.208.052,3.545s-.009,2.628-.052,3.545a6.358,6.358,0,0,1-.4,2.088,4.391,4.391,0,0,1-2.515,2.515,6.353,6.353,0,0,1-2.088.4c-.917.04-1.208.052-3.545.052s-2.628-.009-3.545-.052a6.358,6.358,0,0,1-2.088-.4,4.391,4.391,0,0,1-2.515-2.515,6.331,6.331,0,0,1-.4-2.088C2.011,13.228,2,12.936,2,10.6s.009-2.628.052-3.545a6.331,6.331,0,0,1,.4-2.088,4.2,4.2,0,0,1,.992-1.524,4.211,4.211,0,0,1,1.524-.992,6.331,6.331,0,0,1,2.088-.4C7.972,2.011,8.263,2,10.6,2Z" transform="translate(-0.28 -0.28)" fill="#3a3a3a"/>
</svg>
