<svg id="snapchat-fill" xmlns="http://www.w3.org/2000/svg" width="20.639" height="20.639" viewBox="0 0 20.639 20.639">
  <path id="Path_86" data-name="Path 86" d="M0,0H20.639V20.639H0Z" fill="none"/>
  <path id="Path_87" data-name="Path 87" d="M10.489,19.136a3.854,3.854,0,0,1-2.316-.908,3.336,3.336,0,0,0-1.318-.679,3.928,3.928,0,0,0-.691-.057,4.638,4.638,0,0,0-.958.107,2.377,2.377,0,0,1-.365.05.257.257,0,0,1-.275-.2c-.043-.138-.07-.268-.1-.395-.069-.318-.126-.513-.246-.533-1.28-.2-2.047-.49-2.2-.839A.416.416,0,0,1,2,15.579a.2.2,0,0,1,.176-.215,4.535,4.535,0,0,0,2.7-1.6,5.673,5.673,0,0,0,.917-1.43.008.008,0,0,1,.008-.009.929.929,0,0,0,.088-.77c-.164-.4-.709-.564-1.081-.679-.1-.026-.176-.057-.245-.08-.318-.126-.848-.4-.778-.767a.717.717,0,0,1,.7-.46.426.426,0,0,1,.206.043,2.171,2.171,0,0,0,.875.225.706.706,0,0,0,.5-.157q-.012-.255-.03-.51a8.63,8.63,0,0,1,.206-3.466,4.517,4.517,0,0,1,4.187-2.7L10.734,3h.043a4.508,4.508,0,0,1,4.186,2.7,8.559,8.559,0,0,1,.206,3.466l-.007.058c-.009.157-.02.306-.028.46a.7.7,0,0,0,.46.149,2.184,2.184,0,0,0,.82-.226.691.691,0,0,1,.268-.057.983.983,0,0,1,.307.057H17c.257.1.426.276.426.464s-.131.445-.786.709a1.913,1.913,0,0,1-.245.08c-.365.112-.909.288-1.082.679a.907.907,0,0,0,.089.77.008.008,0,0,0,.008.009,5.311,5.311,0,0,0,3.615,3.032.212.212,0,0,1,.176.215.23.23,0,0,1-.027.111c-.15.353-.909.64-2.2.839-.119.019-.176.215-.245.533q-.041.2-.1.395a.245.245,0,0,1-.256.2h-.02a1.927,1.927,0,0,1-.364-.042,4.545,4.545,0,0,0-.959-.1,4.273,4.273,0,0,0-.69.058,3.323,3.323,0,0,0-1.319.679,3.925,3.925,0,0,1-2.319.9h-.218Z" transform="translate(-0.28 -0.42)" fill="#3a3a3a"/>
</svg>
