<svg id="twitter-fill" xmlns="http://www.w3.org/2000/svg" width="20.639" height="20.639" viewBox="0 0 20.639 20.639">
  <path id="Path_88" data-name="Path 88" d="M0,0H20.639V20.639H0Z" fill="none"/>
  <path id="Path_89" data-name="Path 89" d="M19.308,5.38a7.21,7.21,0,0,1-2.066.566,3.608,3.608,0,0,0,1.582-1.99,7.187,7.187,0,0,1-2.284.873,3.6,3.6,0,0,0-6.128,3.28A10.211,10.211,0,0,1,3,4.351a3.6,3.6,0,0,0,1.113,4.8A3.584,3.584,0,0,1,2.483,8.7v.045a3.6,3.6,0,0,0,2.884,3.527,3.62,3.62,0,0,1-1.625.062,3.6,3.6,0,0,0,3.36,2.5,7.219,7.219,0,0,1-5.324,1.489,10.173,10.173,0,0,0,5.512,1.617A10.164,10.164,0,0,0,17.525,7.708c0-.155,0-.311-.011-.464a7.306,7.306,0,0,0,1.795-1.862Z" transform="translate(-0.249 -0.517)" fill="#3a3a3a"/>
</svg>
