<svg id="youtube-fill" xmlns="http://www.w3.org/2000/svg" width="20.639" height="20.639" viewBox="0 0 20.639 20.639">
  <path id="Path_90" data-name="Path 90" d="M0,0H20.639V20.639H0Z" fill="none"/>
  <path id="Path_91" data-name="Path 91" d="M18.806,6.148A26.709,26.709,0,0,1,19.2,10.88a26.709,26.709,0,0,1-.393,4.732A2.417,2.417,0,0,1,17.14,17.35a43.934,43.934,0,0,1-6.54.409,43.952,43.952,0,0,1-6.54-.409,2.417,2.417,0,0,1-1.667-1.739A26.709,26.709,0,0,1,2,10.88a26.709,26.709,0,0,1,.393-4.732A2.417,2.417,0,0,1,4.06,4.409,43.952,43.952,0,0,1,10.6,4a43.934,43.934,0,0,1,6.54.409A2.417,2.417,0,0,1,18.806,6.148ZM8.88,13.89l5.16-3.01L8.88,7.87Z" transform="translate(-0.28 -0.56)" fill="#3a3a3a"/>
</svg>
