<svg id="shield-star-line" xmlns="http://www.w3.org/2000/svg" width="40" height="40" viewBox="0 0 40 40">
  <path id="Path_34" data-name="Path 34" d="M0,0H40V40H0Z" fill="none"/>
  <path id="Path_35" data-name="Path 35" d="M6.333,7.007V22.315A6.667,6.667,0,0,0,9.3,27.862l8.7,5.8,8.7-5.8a6.667,6.667,0,0,0,2.968-5.545V7.007L18,4.417ZM4.3,4.043,18,1,31.695,4.043A1.667,1.667,0,0,1,33,5.67V22.315a10,10,0,0,1-4.453,8.32L18,37.667,7.453,30.635A10,10,0,0,1,3,22.317V5.67A1.667,1.667,0,0,1,4.3,4.043ZM18,21.833l-4.9,2.575.935-5.453-3.962-3.863,5.477-.8L18,9.333,20.45,14.3l5.475.8-3.962,3.863.933,5.453Z" transform="translate(2 0.667)" fill="#2a9848"/>
</svg>
