<svg id="snapchat-fill" xmlns="http://www.w3.org/2000/svg" width="24" height="24" viewBox="0 0 24 24">
  <path id="Path_86" data-name="Path 86" d="M0,0H24V24H0Z" fill="none"/>
  <path id="Path_87" data-name="Path 87" d="M11.871,21.764a4.482,4.482,0,0,1-2.693-1.056,3.88,3.88,0,0,0-1.533-.79,4.568,4.568,0,0,0-.8-.066,5.393,5.393,0,0,0-1.114.125,2.764,2.764,0,0,1-.424.058.3.3,0,0,1-.32-.228c-.05-.16-.081-.312-.112-.459-.08-.37-.147-.6-.286-.62-1.489-.227-2.38-.57-2.554-.976A.484.484,0,0,1,2,17.627a.238.238,0,0,1,.2-.25,5.273,5.273,0,0,0,3.138-1.858A6.6,6.6,0,0,0,6.41,13.856a.009.009,0,0,1,.009-.01,1.08,1.08,0,0,0,.1-.9c-.191-.46-.825-.656-1.257-.79-.111-.03-.2-.066-.285-.093-.37-.147-.986-.46-.9-.892a.834.834,0,0,1,.811-.535.5.5,0,0,1,.24.05,2.524,2.524,0,0,0,1.017.262.82.82,0,0,0,.584-.182q-.014-.3-.035-.593a10.035,10.035,0,0,1,.24-4.03A5.253,5.253,0,0,1,11.8,3.008L12.156,3h.05a5.242,5.242,0,0,1,4.868,3.139,9.953,9.953,0,0,1,.24,4.03l-.008.067c-.01.182-.023.356-.032.535a.818.818,0,0,0,.535.173,2.54,2.54,0,0,0,.954-.263.8.8,0,0,1,.312-.066,1.143,1.143,0,0,1,.357.066h.009c.3.112.5.321.5.54s-.152.517-.914.825a2.224,2.224,0,0,1-.285.093c-.424.13-1.057.335-1.258.79a1.055,1.055,0,0,0,.1.895.009.009,0,0,0,.009.01c.049.124,1.337,3.049,4.2,3.526a.246.246,0,0,1,.2.25.267.267,0,0,1-.031.129c-.174.41-1.057.744-2.555.976-.138.022-.2.25-.285.62q-.048.231-.112.459a.285.285,0,0,1-.3.227H18.7a2.241,2.241,0,0,1-.423-.049,5.285,5.285,0,0,0-1.115-.116,4.969,4.969,0,0,0-.8.067,3.864,3.864,0,0,0-1.534.79,4.564,4.564,0,0,1-2.7,1.051h-.254Z" fill="#fff"/>
</svg>
